<mxfile host="app.diagrams.net" modified="2023-02-25T20:11:51.055Z" agent="5.0 (Windows)" etag="mWyLgZmFi-foz8AsBHAS" version="20.8.23" type="github">
  <diagram name="Page-1" id="2c4490ee-f0b8-94ab-5012-d5dc3445f7a3">
    <mxGraphModel dx="1528" dy="789" grid="1" gridSize="11" guides="1" tooltips="1" connect="0" arrows="1" fold="1" page="1" pageScale="1.5" pageWidth="1169" pageHeight="826" background="none" math="0" shadow="0">
      <root>
        <mxCell id="0" style=";html=1;" />
        <mxCell id="1" style=";html=1;" parent="0" />
        <mxCell id="7a8b956e7d50b54d-114" value="Feb" style="strokeWidth=1;fontStyle=0;html=1;fontSize=18;" parent="1" vertex="1">
          <mxGeometry x="195" y="22" width="220" height="20" as="geometry" />
        </mxCell>
        <mxCell id="7a8b956e7d50b54d-241" value="" style="align=left;strokeColor=#CCCCCC;html=1;fontSize=18;" parent="1" vertex="1">
          <mxGeometry x="195" y="62" width="220" height="20" as="geometry" />
        </mxCell>
        <mxCell id="7a8b956e7d50b54d-118" value="W1" style="strokeWidth=1;fontStyle=0;html=1;fontSize=18;" parent="1" vertex="1">
          <mxGeometry x="195" y="42" width="55" height="20" as="geometry" />
        </mxCell>
        <mxCell id="7a8b956e7d50b54d-353" value="&lt;font style=&quot;font-size: 15px;&quot;&gt;&lt;font style=&quot;font-size: 15px;&quot;&gt;Planification&lt;/font&gt;&lt;/font&gt;" style="align=left;strokeColor=#6c8ebf;html=1;fillColor=#dae8fc;fontSize=18;" parent="1" vertex="1">
          <mxGeometry x="305" y="62.5" width="110" height="19.5" as="geometry" />
        </mxCell>
        <mxCell id="ANdagTGhTcDxKXREWcP5-1" value="W2" style="strokeWidth=1;fontStyle=0;html=1;fontSize=18;" parent="1" vertex="1">
          <mxGeometry x="250" y="42" width="55" height="20" as="geometry" />
        </mxCell>
        <mxCell id="ANdagTGhTcDxKXREWcP5-2" value="W3" style="strokeWidth=1;fontStyle=0;html=1;fontSize=18;" parent="1" vertex="1">
          <mxGeometry x="305" y="42" width="55" height="20" as="geometry" />
        </mxCell>
        <mxCell id="ANdagTGhTcDxKXREWcP5-3" value="W4" style="strokeWidth=1;fontStyle=0;html=1;fontSize=18;" parent="1" vertex="1">
          <mxGeometry x="360" y="42" width="55" height="20" as="geometry" />
        </mxCell>
        <mxCell id="ANdagTGhTcDxKXREWcP5-4" value="" style="align=left;strokeColor=#CCCCCC;html=1;fontSize=18;" parent="1" vertex="1">
          <mxGeometry x="195" y="82" width="220" height="20" as="geometry" />
        </mxCell>
        <mxCell id="ANdagTGhTcDxKXREWcP5-7" value="" style="align=left;strokeColor=#CCCCCC;html=1;fontSize=18;" parent="1" vertex="1">
          <mxGeometry x="195" y="102" width="220" height="20" as="geometry" />
        </mxCell>
        <mxCell id="ANdagTGhTcDxKXREWcP5-8" value="" style="align=left;strokeColor=#CCCCCC;html=1;fontSize=18;" parent="1" vertex="1">
          <mxGeometry x="195" y="122" width="220" height="20" as="geometry" />
        </mxCell>
        <mxCell id="ANdagTGhTcDxKXREWcP5-9" value="" style="align=left;strokeColor=#CCCCCC;html=1;fontSize=18;" parent="1" vertex="1">
          <mxGeometry x="195" y="142" width="220" height="20" as="geometry" />
        </mxCell>
        <mxCell id="ANdagTGhTcDxKXREWcP5-10" value="" style="align=left;strokeColor=#CCCCCC;html=1;fontSize=18;" parent="1" vertex="1">
          <mxGeometry x="195" y="162" width="220" height="20" as="geometry" />
        </mxCell>
        <mxCell id="ANdagTGhTcDxKXREWcP5-11" value="" style="align=left;strokeColor=#CCCCCC;html=1;fontSize=18;" parent="1" vertex="1">
          <mxGeometry x="195" y="182" width="220" height="20" as="geometry" />
        </mxCell>
        <mxCell id="ANdagTGhTcDxKXREWcP5-12" value="" style="align=left;strokeColor=#CCCCCC;html=1;fontSize=18;" parent="1" vertex="1">
          <mxGeometry x="195" y="202" width="220" height="20" as="geometry" />
        </mxCell>
        <mxCell id="ANdagTGhTcDxKXREWcP5-17" value="" style="align=left;strokeColor=#CCCCCC;html=1;fontSize=18;" parent="1" vertex="1">
          <mxGeometry x="195" y="222" width="220" height="20" as="geometry" />
        </mxCell>
        <mxCell id="ANdagTGhTcDxKXREWcP5-18" value="" style="align=left;strokeColor=#CCCCCC;html=1;fontSize=18;" parent="1" vertex="1">
          <mxGeometry x="195" y="242" width="220" height="20" as="geometry" />
        </mxCell>
        <mxCell id="ANdagTGhTcDxKXREWcP5-19" value="" style="align=left;strokeColor=#CCCCCC;html=1;fontSize=18;" parent="1" vertex="1">
          <mxGeometry x="195" y="262" width="220" height="20" as="geometry" />
        </mxCell>
        <mxCell id="ANdagTGhTcDxKXREWcP5-20" value="" style="align=left;strokeColor=#CCCCCC;html=1;fontSize=18;" parent="1" vertex="1">
          <mxGeometry x="195" y="282" width="220" height="20" as="geometry" />
        </mxCell>
        <mxCell id="ANdagTGhTcDxKXREWcP5-21" value="" style="align=left;strokeColor=#CCCCCC;html=1;fontSize=18;" parent="1" vertex="1">
          <mxGeometry x="195" y="302" width="220" height="20" as="geometry" />
        </mxCell>
        <mxCell id="ANdagTGhTcDxKXREWcP5-22" value="" style="align=left;strokeColor=#CCCCCC;html=1;fontSize=18;" parent="1" vertex="1">
          <mxGeometry x="195" y="322" width="220" height="20" as="geometry" />
        </mxCell>
        <mxCell id="ANdagTGhTcDxKXREWcP5-23" value="" style="align=left;strokeColor=#CCCCCC;html=1;fontSize=18;" parent="1" vertex="1">
          <mxGeometry x="195" y="342" width="220" height="20" as="geometry" />
        </mxCell>
        <mxCell id="ANdagTGhTcDxKXREWcP5-24" value="" style="align=left;strokeColor=#CCCCCC;html=1;fontSize=18;" parent="1" vertex="1">
          <mxGeometry x="195" y="362" width="220" height="20" as="geometry" />
        </mxCell>
        <mxCell id="ANdagTGhTcDxKXREWcP5-109" value="Mar" style="strokeWidth=1;fontStyle=0;html=1;fontSize=18;" parent="1" vertex="1">
          <mxGeometry x="415" y="22" width="220" height="20" as="geometry" />
        </mxCell>
        <mxCell id="ANdagTGhTcDxKXREWcP5-110" value="" style="align=left;strokeColor=#CCCCCC;html=1;fontSize=18;" parent="1" vertex="1">
          <mxGeometry x="415" y="62" width="220" height="20" as="geometry" />
        </mxCell>
        <mxCell id="ANdagTGhTcDxKXREWcP5-111" value="W1" style="strokeWidth=1;fontStyle=0;html=1;fontSize=18;" parent="1" vertex="1">
          <mxGeometry x="415" y="42" width="55" height="20" as="geometry" />
        </mxCell>
        <mxCell id="ANdagTGhTcDxKXREWcP5-112" value="W2" style="strokeWidth=1;fontStyle=0;html=1;fontSize=18;" parent="1" vertex="1">
          <mxGeometry x="470" y="42" width="55" height="20" as="geometry" />
        </mxCell>
        <mxCell id="ANdagTGhTcDxKXREWcP5-113" value="W3" style="strokeWidth=1;fontStyle=0;html=1;fontSize=18;" parent="1" vertex="1">
          <mxGeometry x="525" y="42" width="55" height="20" as="geometry" />
        </mxCell>
        <mxCell id="ANdagTGhTcDxKXREWcP5-114" value="W4" style="strokeWidth=1;fontStyle=0;html=1;fontSize=18;" parent="1" vertex="1">
          <mxGeometry x="580" y="42" width="55" height="20" as="geometry" />
        </mxCell>
        <mxCell id="ANdagTGhTcDxKXREWcP5-115" value="" style="align=left;strokeColor=#CCCCCC;html=1;fontSize=18;" parent="1" vertex="1">
          <mxGeometry x="415" y="82" width="220" height="20" as="geometry" />
        </mxCell>
        <mxCell id="ANdagTGhTcDxKXREWcP5-116" value="" style="align=left;strokeColor=#CCCCCC;html=1;fontSize=18;" parent="1" vertex="1">
          <mxGeometry x="415" y="102" width="220" height="20" as="geometry" />
        </mxCell>
        <mxCell id="ANdagTGhTcDxKXREWcP5-117" value="" style="align=left;strokeColor=#CCCCCC;html=1;fontSize=18;" parent="1" vertex="1">
          <mxGeometry x="415" y="122" width="220" height="20" as="geometry" />
        </mxCell>
        <mxCell id="ANdagTGhTcDxKXREWcP5-118" value="" style="align=left;strokeColor=#CCCCCC;html=1;fontSize=18;" parent="1" vertex="1">
          <mxGeometry x="415" y="142" width="220" height="20" as="geometry" />
        </mxCell>
        <mxCell id="ANdagTGhTcDxKXREWcP5-119" value="" style="align=left;strokeColor=#CCCCCC;html=1;fontSize=18;" parent="1" vertex="1">
          <mxGeometry x="415" y="162" width="220" height="20" as="geometry" />
        </mxCell>
        <mxCell id="ANdagTGhTcDxKXREWcP5-120" value="" style="align=left;strokeColor=#CCCCCC;html=1;fontSize=18;" parent="1" vertex="1">
          <mxGeometry x="415" y="182" width="220" height="20" as="geometry" />
        </mxCell>
        <mxCell id="ANdagTGhTcDxKXREWcP5-121" value="" style="align=left;strokeColor=#CCCCCC;html=1;fontSize=18;" parent="1" vertex="1">
          <mxGeometry x="415" y="202" width="220" height="20" as="geometry" />
        </mxCell>
        <mxCell id="ANdagTGhTcDxKXREWcP5-122" value="" style="align=left;strokeColor=#CCCCCC;html=1;fontSize=18;" parent="1" vertex="1">
          <mxGeometry x="415" y="222" width="220" height="20" as="geometry" />
        </mxCell>
        <mxCell id="ANdagTGhTcDxKXREWcP5-123" value="" style="align=left;strokeColor=#CCCCCC;html=1;fontSize=18;" parent="1" vertex="1">
          <mxGeometry x="415" y="242" width="220" height="20" as="geometry" />
        </mxCell>
        <mxCell id="ANdagTGhTcDxKXREWcP5-124" value="" style="align=left;strokeColor=#CCCCCC;html=1;fontSize=18;" parent="1" vertex="1">
          <mxGeometry x="415" y="262" width="220" height="20" as="geometry" />
        </mxCell>
        <mxCell id="ANdagTGhTcDxKXREWcP5-125" value="" style="align=left;strokeColor=#CCCCCC;html=1;fontSize=18;" parent="1" vertex="1">
          <mxGeometry x="415" y="282" width="220" height="20" as="geometry" />
        </mxCell>
        <mxCell id="ANdagTGhTcDxKXREWcP5-126" value="" style="align=left;strokeColor=#CCCCCC;html=1;fontSize=18;" parent="1" vertex="1">
          <mxGeometry x="415" y="302" width="220" height="20" as="geometry" />
        </mxCell>
        <mxCell id="ANdagTGhTcDxKXREWcP5-127" value="" style="align=left;strokeColor=#CCCCCC;html=1;fontSize=18;" parent="1" vertex="1">
          <mxGeometry x="415" y="322" width="220" height="20" as="geometry" />
        </mxCell>
        <mxCell id="ANdagTGhTcDxKXREWcP5-128" value="" style="align=left;strokeColor=#CCCCCC;html=1;fontSize=18;" parent="1" vertex="1">
          <mxGeometry x="415" y="342" width="220" height="20" as="geometry" />
        </mxCell>
        <mxCell id="ANdagTGhTcDxKXREWcP5-129" value="" style="align=left;strokeColor=#CCCCCC;html=1;fontSize=18;" parent="1" vertex="1">
          <mxGeometry x="415" y="362" width="220" height="20" as="geometry" />
        </mxCell>
        <mxCell id="ANdagTGhTcDxKXREWcP5-130" value="Apr" style="strokeWidth=1;fontStyle=0;html=1;fontSize=18;" parent="1" vertex="1">
          <mxGeometry x="635" y="22" width="220" height="20" as="geometry" />
        </mxCell>
        <mxCell id="ANdagTGhTcDxKXREWcP5-131" value="" style="align=left;strokeColor=#CCCCCC;html=1;fontSize=18;" parent="1" vertex="1">
          <mxGeometry x="635" y="62" width="220" height="20" as="geometry" />
        </mxCell>
        <mxCell id="ANdagTGhTcDxKXREWcP5-132" value="W1" style="strokeWidth=1;fontStyle=0;html=1;fontSize=18;" parent="1" vertex="1">
          <mxGeometry x="635" y="42" width="55" height="20" as="geometry" />
        </mxCell>
        <mxCell id="ANdagTGhTcDxKXREWcP5-133" value="W2" style="strokeWidth=1;fontStyle=0;html=1;fontSize=18;" parent="1" vertex="1">
          <mxGeometry x="690" y="42" width="55" height="20" as="geometry" />
        </mxCell>
        <mxCell id="ANdagTGhTcDxKXREWcP5-134" value="W3" style="strokeWidth=1;fontStyle=0;html=1;fontSize=18;" parent="1" vertex="1">
          <mxGeometry x="745" y="42" width="55" height="20" as="geometry" />
        </mxCell>
        <mxCell id="ANdagTGhTcDxKXREWcP5-135" value="W4" style="strokeWidth=1;fontStyle=0;html=1;fontSize=18;" parent="1" vertex="1">
          <mxGeometry x="800" y="42" width="55" height="20" as="geometry" />
        </mxCell>
        <mxCell id="ANdagTGhTcDxKXREWcP5-136" value="" style="align=left;strokeColor=#CCCCCC;html=1;fontSize=18;" parent="1" vertex="1">
          <mxGeometry x="635" y="82" width="220" height="20" as="geometry" />
        </mxCell>
        <mxCell id="ANdagTGhTcDxKXREWcP5-137" value="" style="align=left;strokeColor=#CCCCCC;html=1;fontSize=18;" parent="1" vertex="1">
          <mxGeometry x="635" y="102" width="220" height="20" as="geometry" />
        </mxCell>
        <mxCell id="ANdagTGhTcDxKXREWcP5-138" value="" style="align=left;strokeColor=#CCCCCC;html=1;fontSize=18;" parent="1" vertex="1">
          <mxGeometry x="635" y="122" width="220" height="20" as="geometry" />
        </mxCell>
        <mxCell id="ANdagTGhTcDxKXREWcP5-139" value="" style="align=left;strokeColor=#CCCCCC;html=1;fontSize=18;" parent="1" vertex="1">
          <mxGeometry x="635" y="142" width="220" height="20" as="geometry" />
        </mxCell>
        <mxCell id="ANdagTGhTcDxKXREWcP5-140" value="" style="align=left;strokeColor=#CCCCCC;html=1;fontSize=18;" parent="1" vertex="1">
          <mxGeometry x="635" y="162" width="220" height="20" as="geometry" />
        </mxCell>
        <mxCell id="ANdagTGhTcDxKXREWcP5-141" value="" style="align=left;strokeColor=#CCCCCC;html=1;fontSize=18;" parent="1" vertex="1">
          <mxGeometry x="635" y="182" width="220" height="20" as="geometry" />
        </mxCell>
        <mxCell id="ANdagTGhTcDxKXREWcP5-142" value="" style="align=left;strokeColor=#CCCCCC;html=1;fontSize=18;" parent="1" vertex="1">
          <mxGeometry x="635" y="202" width="220" height="20" as="geometry" />
        </mxCell>
        <mxCell id="ANdagTGhTcDxKXREWcP5-143" value="" style="align=left;strokeColor=#CCCCCC;html=1;fontSize=18;" parent="1" vertex="1">
          <mxGeometry x="635" y="222" width="220" height="20" as="geometry" />
        </mxCell>
        <mxCell id="ANdagTGhTcDxKXREWcP5-144" value="" style="align=left;strokeColor=#CCCCCC;html=1;fontSize=18;" parent="1" vertex="1">
          <mxGeometry x="635" y="242" width="220" height="20" as="geometry" />
        </mxCell>
        <mxCell id="ANdagTGhTcDxKXREWcP5-145" value="" style="align=left;strokeColor=#CCCCCC;html=1;fontSize=18;" parent="1" vertex="1">
          <mxGeometry x="635" y="262" width="220" height="20" as="geometry" />
        </mxCell>
        <mxCell id="ANdagTGhTcDxKXREWcP5-146" value="" style="align=left;strokeColor=#CCCCCC;html=1;fontSize=18;" parent="1" vertex="1">
          <mxGeometry x="635" y="282" width="220" height="20" as="geometry" />
        </mxCell>
        <mxCell id="ANdagTGhTcDxKXREWcP5-147" value="" style="align=left;strokeColor=#CCCCCC;html=1;fontSize=18;" parent="1" vertex="1">
          <mxGeometry x="635" y="302" width="220" height="20" as="geometry" />
        </mxCell>
        <mxCell id="ANdagTGhTcDxKXREWcP5-148" value="" style="align=left;strokeColor=#CCCCCC;html=1;fontSize=18;" parent="1" vertex="1">
          <mxGeometry x="635" y="322" width="220" height="20" as="geometry" />
        </mxCell>
        <mxCell id="ANdagTGhTcDxKXREWcP5-149" value="" style="align=left;strokeColor=#CCCCCC;html=1;fontSize=18;" parent="1" vertex="1">
          <mxGeometry x="635" y="342" width="220" height="20" as="geometry" />
        </mxCell>
        <mxCell id="ANdagTGhTcDxKXREWcP5-150" value="" style="align=left;strokeColor=#CCCCCC;html=1;fontSize=18;" parent="1" vertex="1">
          <mxGeometry x="635" y="362" width="220" height="20" as="geometry" />
        </mxCell>
        <mxCell id="ANdagTGhTcDxKXREWcP5-151" value="May" style="strokeWidth=1;fontStyle=0;html=1;fontSize=18;" parent="1" vertex="1">
          <mxGeometry x="855" y="22" width="220" height="20" as="geometry" />
        </mxCell>
        <mxCell id="ANdagTGhTcDxKXREWcP5-152" value="" style="align=left;strokeColor=#CCCCCC;html=1;fontSize=18;" parent="1" vertex="1">
          <mxGeometry x="855" y="62" width="220" height="20" as="geometry" />
        </mxCell>
        <mxCell id="ANdagTGhTcDxKXREWcP5-153" value="W1" style="strokeWidth=1;fontStyle=0;html=1;fontSize=18;" parent="1" vertex="1">
          <mxGeometry x="855" y="42" width="55" height="20" as="geometry" />
        </mxCell>
        <mxCell id="ANdagTGhTcDxKXREWcP5-154" value="W2" style="strokeWidth=1;fontStyle=0;html=1;fontSize=18;" parent="1" vertex="1">
          <mxGeometry x="910" y="42" width="55" height="20" as="geometry" />
        </mxCell>
        <mxCell id="ANdagTGhTcDxKXREWcP5-155" value="W3" style="strokeWidth=1;fontStyle=0;html=1;fontSize=18;" parent="1" vertex="1">
          <mxGeometry x="965" y="42" width="55" height="20" as="geometry" />
        </mxCell>
        <mxCell id="ANdagTGhTcDxKXREWcP5-156" value="W4" style="strokeWidth=1;fontStyle=0;html=1;fontSize=18;" parent="1" vertex="1">
          <mxGeometry x="1020" y="42" width="55" height="20" as="geometry" />
        </mxCell>
        <mxCell id="ANdagTGhTcDxKXREWcP5-157" value="" style="align=left;strokeColor=#CCCCCC;html=1;fontSize=18;" parent="1" vertex="1">
          <mxGeometry x="855" y="82" width="220" height="20" as="geometry" />
        </mxCell>
        <mxCell id="ANdagTGhTcDxKXREWcP5-158" value="" style="align=left;strokeColor=#CCCCCC;html=1;fontSize=18;" parent="1" vertex="1">
          <mxGeometry x="855" y="102" width="220" height="20" as="geometry" />
        </mxCell>
        <mxCell id="ANdagTGhTcDxKXREWcP5-159" value="" style="align=left;strokeColor=#CCCCCC;html=1;fontSize=18;" parent="1" vertex="1">
          <mxGeometry x="855" y="122" width="220" height="20" as="geometry" />
        </mxCell>
        <mxCell id="ANdagTGhTcDxKXREWcP5-160" value="" style="align=left;strokeColor=#CCCCCC;html=1;fontSize=18;" parent="1" vertex="1">
          <mxGeometry x="855" y="142" width="220" height="20" as="geometry" />
        </mxCell>
        <mxCell id="ANdagTGhTcDxKXREWcP5-161" value="" style="align=left;strokeColor=#CCCCCC;html=1;fontSize=18;" parent="1" vertex="1">
          <mxGeometry x="855" y="162" width="220" height="20" as="geometry" />
        </mxCell>
        <mxCell id="ANdagTGhTcDxKXREWcP5-162" value="" style="align=left;strokeColor=#CCCCCC;html=1;fontSize=18;" parent="1" vertex="1">
          <mxGeometry x="855" y="182" width="220" height="20" as="geometry" />
        </mxCell>
        <mxCell id="ANdagTGhTcDxKXREWcP5-163" value="" style="align=left;strokeColor=#CCCCCC;html=1;fontSize=18;" parent="1" vertex="1">
          <mxGeometry x="855" y="202" width="220" height="20" as="geometry" />
        </mxCell>
        <mxCell id="ANdagTGhTcDxKXREWcP5-164" value="" style="align=left;strokeColor=#CCCCCC;html=1;fontSize=18;" parent="1" vertex="1">
          <mxGeometry x="855" y="222" width="220" height="20" as="geometry" />
        </mxCell>
        <mxCell id="ANdagTGhTcDxKXREWcP5-165" value="" style="align=left;strokeColor=#CCCCCC;html=1;fontSize=18;" parent="1" vertex="1">
          <mxGeometry x="855" y="242" width="220" height="20" as="geometry" />
        </mxCell>
        <mxCell id="ANdagTGhTcDxKXREWcP5-166" value="" style="align=left;strokeColor=#CCCCCC;html=1;fontSize=18;" parent="1" vertex="1">
          <mxGeometry x="855" y="262" width="220" height="20" as="geometry" />
        </mxCell>
        <mxCell id="ANdagTGhTcDxKXREWcP5-167" value="" style="align=left;strokeColor=#CCCCCC;html=1;fontSize=18;" parent="1" vertex="1">
          <mxGeometry x="855" y="282" width="220" height="20" as="geometry" />
        </mxCell>
        <mxCell id="ANdagTGhTcDxKXREWcP5-168" value="" style="align=left;strokeColor=#CCCCCC;html=1;fontSize=18;" parent="1" vertex="1">
          <mxGeometry x="855" y="302" width="220" height="20" as="geometry" />
        </mxCell>
        <mxCell id="ANdagTGhTcDxKXREWcP5-169" value="" style="align=left;strokeColor=#CCCCCC;html=1;fontSize=18;" parent="1" vertex="1">
          <mxGeometry x="855" y="322" width="220" height="20" as="geometry" />
        </mxCell>
        <mxCell id="ANdagTGhTcDxKXREWcP5-170" value="" style="align=left;strokeColor=#CCCCCC;html=1;fontSize=18;" parent="1" vertex="1">
          <mxGeometry x="855" y="342" width="220" height="20" as="geometry" />
        </mxCell>
        <mxCell id="ANdagTGhTcDxKXREWcP5-171" value="" style="align=left;strokeColor=#CCCCCC;html=1;fontSize=18;" parent="1" vertex="1">
          <mxGeometry x="855" y="362" width="220" height="20" as="geometry" />
        </mxCell>
        <mxCell id="ANdagTGhTcDxKXREWcP5-172" value="June" style="strokeWidth=1;fontStyle=0;html=1;fontSize=18;" parent="1" vertex="1">
          <mxGeometry x="1075" y="22" width="220" height="20" as="geometry" />
        </mxCell>
        <mxCell id="ANdagTGhTcDxKXREWcP5-173" value="" style="align=left;strokeColor=#CCCCCC;html=1;fontSize=18;" parent="1" vertex="1">
          <mxGeometry x="1075" y="62" width="220" height="20" as="geometry" />
        </mxCell>
        <mxCell id="ANdagTGhTcDxKXREWcP5-174" value="W1" style="strokeWidth=1;fontStyle=0;html=1;fontSize=18;" parent="1" vertex="1">
          <mxGeometry x="1075" y="42" width="55" height="20" as="geometry" />
        </mxCell>
        <mxCell id="ANdagTGhTcDxKXREWcP5-175" value="W2" style="strokeWidth=1;fontStyle=0;html=1;fontSize=18;" parent="1" vertex="1">
          <mxGeometry x="1130" y="42" width="55" height="20" as="geometry" />
        </mxCell>
        <mxCell id="ANdagTGhTcDxKXREWcP5-176" value="W3" style="strokeWidth=1;fontStyle=0;html=1;fontSize=18;" parent="1" vertex="1">
          <mxGeometry x="1185" y="42" width="55" height="20" as="geometry" />
        </mxCell>
        <mxCell id="ANdagTGhTcDxKXREWcP5-177" value="W4" style="strokeWidth=1;fontStyle=0;html=1;fontSize=18;" parent="1" vertex="1">
          <mxGeometry x="1240" y="42" width="55" height="20" as="geometry" />
        </mxCell>
        <mxCell id="ANdagTGhTcDxKXREWcP5-178" value="" style="align=left;strokeColor=#CCCCCC;html=1;fontSize=18;" parent="1" vertex="1">
          <mxGeometry x="1075" y="82" width="220" height="20" as="geometry" />
        </mxCell>
        <mxCell id="ANdagTGhTcDxKXREWcP5-179" value="" style="align=left;strokeColor=#CCCCCC;html=1;fontSize=18;" parent="1" vertex="1">
          <mxGeometry x="1075" y="102" width="220" height="20" as="geometry" />
        </mxCell>
        <mxCell id="ANdagTGhTcDxKXREWcP5-180" value="" style="align=left;strokeColor=#CCCCCC;html=1;fontSize=18;" parent="1" vertex="1">
          <mxGeometry x="1075" y="122" width="220" height="20" as="geometry" />
        </mxCell>
        <mxCell id="ANdagTGhTcDxKXREWcP5-181" value="" style="align=left;strokeColor=#CCCCCC;html=1;fontSize=18;" parent="1" vertex="1">
          <mxGeometry x="1075" y="142" width="220" height="20" as="geometry" />
        </mxCell>
        <mxCell id="ANdagTGhTcDxKXREWcP5-182" value="" style="align=left;strokeColor=#CCCCCC;html=1;fontSize=18;" parent="1" vertex="1">
          <mxGeometry x="1075" y="162" width="220" height="20" as="geometry" />
        </mxCell>
        <mxCell id="ANdagTGhTcDxKXREWcP5-183" value="" style="align=left;strokeColor=#CCCCCC;html=1;fontSize=18;" parent="1" vertex="1">
          <mxGeometry x="1075" y="182" width="220" height="20" as="geometry" />
        </mxCell>
        <mxCell id="ANdagTGhTcDxKXREWcP5-184" value="" style="align=left;strokeColor=#CCCCCC;html=1;fontSize=18;" parent="1" vertex="1">
          <mxGeometry x="1075" y="202" width="220" height="20" as="geometry" />
        </mxCell>
        <mxCell id="ANdagTGhTcDxKXREWcP5-185" value="" style="align=left;strokeColor=#CCCCCC;html=1;fontSize=18;" parent="1" vertex="1">
          <mxGeometry x="1075" y="222" width="220" height="20" as="geometry" />
        </mxCell>
        <mxCell id="ANdagTGhTcDxKXREWcP5-186" value="" style="align=left;strokeColor=#CCCCCC;html=1;fontSize=18;" parent="1" vertex="1">
          <mxGeometry x="1075" y="242" width="220" height="20" as="geometry" />
        </mxCell>
        <mxCell id="ANdagTGhTcDxKXREWcP5-187" value="" style="align=left;strokeColor=#CCCCCC;html=1;fontSize=18;" parent="1" vertex="1">
          <mxGeometry x="1075" y="262" width="220" height="20" as="geometry" />
        </mxCell>
        <mxCell id="ANdagTGhTcDxKXREWcP5-188" value="" style="align=left;strokeColor=#CCCCCC;html=1;fontSize=18;" parent="1" vertex="1">
          <mxGeometry x="1075" y="282" width="220" height="20" as="geometry" />
        </mxCell>
        <mxCell id="ANdagTGhTcDxKXREWcP5-189" value="" style="align=left;strokeColor=#CCCCCC;html=1;fontSize=18;" parent="1" vertex="1">
          <mxGeometry x="1075" y="302" width="220" height="20" as="geometry" />
        </mxCell>
        <mxCell id="ANdagTGhTcDxKXREWcP5-190" value="" style="align=left;strokeColor=#CCCCCC;html=1;fontSize=18;" parent="1" vertex="1">
          <mxGeometry x="1075" y="322" width="220" height="20" as="geometry" />
        </mxCell>
        <mxCell id="ANdagTGhTcDxKXREWcP5-191" value="" style="align=left;strokeColor=#CCCCCC;html=1;fontSize=18;" parent="1" vertex="1">
          <mxGeometry x="1075" y="342" width="220" height="20" as="geometry" />
        </mxCell>
        <mxCell id="ANdagTGhTcDxKXREWcP5-192" value="" style="align=left;strokeColor=#CCCCCC;html=1;fontSize=18;" parent="1" vertex="1">
          <mxGeometry x="1075" y="362" width="220" height="20" as="geometry" />
        </mxCell>
        <mxCell id="ANdagTGhTcDxKXREWcP5-193" value="&lt;font style=&quot;font-size: 15px;&quot;&gt;&lt;font style=&quot;font-size: 15px;&quot;&gt;&lt;font style=&quot;font-size: 15px;&quot;&gt;sprint &lt;/font&gt;&lt;/font&gt;&lt;/font&gt;&lt;font style=&quot;font-size: 15px;&quot;&gt;1&lt;/font&gt;" style="align=left;strokeColor=#6c8ebf;html=1;fillColor=#dae8fc;fontSize=18;" parent="1" vertex="1">
          <mxGeometry x="415" y="82.25" width="58" height="19.5" as="geometry" />
        </mxCell>
        <mxCell id="ANdagTGhTcDxKXREWcP5-194" value="&lt;font style=&quot;font-size: 15px;&quot;&gt;&lt;font style=&quot;font-size: 15px;&quot;&gt;sprint 2&lt;/font&gt;&lt;/font&gt;" style="align=left;strokeColor=#6c8ebf;html=1;fillColor=#dae8fc;fontSize=18;" parent="1" vertex="1">
          <mxGeometry x="473" y="102.5" width="110" height="19.5" as="geometry" />
        </mxCell>
        <mxCell id="ANdagTGhTcDxKXREWcP5-195" value="&lt;font style=&quot;font-size: 15px;&quot;&gt;&lt;font style=&quot;font-size: 15px;&quot;&gt;sprint 2&lt;/font&gt;&lt;/font&gt;" style="align=left;strokeColor=#6c8ebf;html=1;fillColor=#dae8fc;fontSize=18;" parent="1" vertex="1">
          <mxGeometry x="580" y="122" width="113" height="19.5" as="geometry" />
        </mxCell>
        <mxCell id="ANdagTGhTcDxKXREWcP5-196" value="&lt;font style=&quot;font-size: 15px;&quot;&gt;&lt;font style=&quot;font-size: 15px;&quot;&gt;sprint 2&lt;/font&gt;&lt;/font&gt;" style="align=left;strokeColor=#6c8ebf;html=1;fillColor=#dae8fc;fontSize=18;" parent="1" vertex="1">
          <mxGeometry x="693" y="142.5" width="113" height="19.5" as="geometry" />
        </mxCell>
        <mxCell id="ANdagTGhTcDxKXREWcP5-197" value="&lt;font style=&quot;font-size: 15px;&quot;&gt;&lt;font style=&quot;font-size: 15px;&quot;&gt;sprint 2&lt;/font&gt;&lt;/font&gt;" style="align=left;strokeColor=#6c8ebf;html=1;fillColor=#dae8fc;fontSize=18;" parent="1" vertex="1">
          <mxGeometry x="806" y="162.25" width="113" height="19.5" as="geometry" />
        </mxCell>
        <mxCell id="ANdagTGhTcDxKXREWcP5-198" value="" style="shape=flexArrow;endArrow=classic;html=1;rounded=0;fontSize=15;exitX=0.499;exitY=0.029;exitDx=0;exitDy=0;exitPerimeter=0;width=22;" parent="1" source="ANdagTGhTcDxKXREWcP5-7" edge="1">
          <mxGeometry width="50" height="50" relative="1" as="geometry">
            <mxPoint x="649" y="226" as="sourcePoint" />
            <mxPoint x="1034" y="252" as="targetPoint" />
          </mxGeometry>
        </mxCell>
        <mxCell id="ANdagTGhTcDxKXREWcP5-203" value="&lt;font style=&quot;font-size: 15px;&quot;&gt;&lt;font style=&quot;font-size: 15px;&quot;&gt;&lt;font style=&quot;font-size: 15px;&quot;&gt;&lt;font style=&quot;font-size: 15px;&quot;&gt;Rapport&lt;/font&gt;&lt;/font&gt;&lt;/font&gt;&lt;/font&gt;" style="edgeLabel;html=1;align=center;verticalAlign=middle;resizable=0;points=[];fontSize=15;rotation=10;" parent="ANdagTGhTcDxKXREWcP5-198" vertex="1" connectable="0">
          <mxGeometry x="-0.1029" y="4" relative="1" as="geometry">
            <mxPoint x="12" y="6" as="offset" />
          </mxGeometry>
        </mxCell>
        <mxCell id="ANdagTGhTcDxKXREWcP5-199" value="&lt;font style=&quot;font-size: 15px;&quot;&gt;&lt;font style=&quot;font-size: 15px;&quot;&gt;sprint 2&lt;/font&gt;&lt;/font&gt;" style="align=left;strokeColor=#6c8ebf;html=1;fillColor=#dae8fc;fontSize=18;" parent="1" vertex="1">
          <mxGeometry x="919" y="182.5" width="113" height="19.5" as="geometry" />
        </mxCell>
      </root>
    </mxGraphModel>
  </diagram>
</mxfile>
